<svg width="2000" height="1897" viewBox="0 0 2000 1897" fill="none" xmlns="http://www.w3.org/2000/svg">
<path fill-rule="evenodd" clip-rule="evenodd" d="M86.2406 561.86C97.1824 528.445 131.848 508.933 166.092 516.914L679.845 636.654C716.077 645.099 751.373 619.446 754.523 582.378L798.743 62.077C801.726 26.9738 831.091 0 866.323 0H1135.92C1171.15 0 1200.52 26.9791 1203.5 62.0862L1244.02 539.676C1245.82 560.851 1233.27 580.648 1213.4 588.185C1012.69 664.306 885.11 719.335 735.457 817.908C638.847 881.543 541.862 954.239 456.369 1035.56C440.415 1050.73 417.045 1055.43 396.729 1046.94L41.686 898.578C9.04918 884.941 -7.62617 848.512 3.38096 814.898L86.2406 561.86ZM1483.1 1884.25C1454.66 1904.69 1415.34 1900.11 1392.35 1873.69L1137.08 1580.29C1122.37 1563.37 1119.39 1539.07 1131.08 1519.94C1196.62 1412.67 1307.2 1300.72 1415.25 1221.66C1433.9 1208.01 1459.98 1213.78 1472.06 1233.49L1719.25 1637.21C1737.8 1667.5 1729.83 1706.97 1700.98 1727.7L1483.1 1884.25ZM572.578 1884.9C605.797 1907.9 651.572 1896.87 671.916 1861.96C954.424 1377.22 1397.13 1017.21 1950.49 891.648C1986.43 883.494 2008.42 846.44 1996.94 811.423L1914.82 560.852C1904.81 530.289 1874.65 510.858 1842.79 515.254C1159.41 609.534 576.315 1008.09 245.44 1577.55C226.34 1610.42 236.445 1652.19 267.705 1673.83L572.578 1884.9Z" fill="#00A085"/>
</svg>
