<svg width="3458" height="600" viewBox="0 0 3458 600" fill="none" xmlns="http://www.w3.org/2000/svg">
<path fill-rule="evenodd" clip-rule="evenodd" d="M3305 201.758C3330.59 201.758 3352.52 208.177 3370.8 221.016C3379.6 226.884 3387.42 233.919 3394.24 242.12L3396.07 218.856C3396.5 213.371 3401.08 209.139 3406.58 209.139H3447.1C3452.92 209.139 3457.64 213.86 3457.64 219.684V489.631C3457.64 495.455 3452.92 500.176 3447.1 500.176H3406.58C3401.08 500.176 3396.5 495.945 3396.07 490.459L3394.25 467.343C3387.43 475.648 3379.61 482.828 3370.8 488.883C3352.52 501.333 3330.59 507.558 3305 507.558C3277.38 507.558 3253.21 501.333 3232.5 488.883C3212.19 476.044 3196.15 458.147 3184.37 435.193C3173 412.238 3167.31 385.393 3167.31 354.658C3167.31 323.533 3173 296.688 3184.37 274.123C3196.15 251.168 3212.19 233.466 3232.5 221.016C3253.21 208.177 3277.38 201.758 3305 201.758ZM3314.95 261.869C3299.39 261.869 3285.57 265.76 3273.51 273.541C3261.45 281.322 3251.92 292.216 3244.92 306.222C3238.3 320.228 3234.8 336.374 3234.41 354.66C3234.8 372.945 3238.3 389.091 3244.92 403.097C3251.92 417.103 3261.45 428.192 3273.51 436.362C3285.96 444.143 3299.97 448.034 3315.53 448.034C3330.32 448.034 3343.35 444.143 3354.63 436.362C3366.3 428.192 3375.25 417.103 3381.48 403.097C3388.09 389.091 3391.4 372.945 3391.4 354.66C3391.4 336.374 3388.09 320.228 3381.48 306.222C3375.25 292.216 3366.3 281.322 3354.63 273.541C3343.35 265.76 3330.12 261.869 3314.95 261.869Z" fill="#242727"/>
<path d="M3108.96 209.14C3114.79 209.14 3119.51 213.861 3119.51 219.684V489.632C3119.51 495.455 3114.79 500.177 3108.96 500.177H3065.03C3059.2 500.177 3054.48 495.455 3054.48 489.632V219.684C3054.48 213.861 3059.2 209.14 3065.03 209.14H3108.96Z" fill="#242727"/>
<path d="M3086.99 92.4434C3097.4 92.4434 3106.26 96.131 3113.57 103.506C3121.28 110.881 3125.13 119.809 3125.13 130.289C3125.13 140.77 3121.28 149.891 3113.57 157.655C3106.26 165.03 3097.4 168.718 3086.99 168.718C3076.59 168.718 3067.54 165.03 3059.84 157.655C3052.52 149.891 3048.86 140.77 3048.86 130.289C3048.86 119.809 3052.52 110.881 3059.84 103.506C3067.54 96.131 3076.59 92.4434 3086.99 92.4434Z" fill="#242727"/>
<path d="M2938.14 500.176C2932.31 500.176 2927.59 495.455 2927.59 489.631V110.37C2927.59 104.546 2932.31 99.8247 2938.14 99.8247H2982.07C2987.9 99.8247 2992.62 104.546 2992.62 110.37V489.631C2992.62 495.455 2987.9 500.176 2982.07 500.176H2938.14Z" fill="#242727"/>
<path fill-rule="evenodd" clip-rule="evenodd" d="M2711.68 201.758C2737.27 201.758 2759.2 208.177 2777.48 221.016C2786.28 226.884 2794.1 233.919 2800.92 242.12L2802.75 218.856C2803.18 213.371 2807.76 209.139 2813.26 209.139H2853.78C2859.6 209.139 2864.32 213.86 2864.32 219.684V489.631C2864.32 495.455 2859.6 500.176 2853.78 500.176H2813.26C2807.76 500.176 2803.18 495.945 2802.75 490.459L2800.93 467.343C2794.1 475.648 2786.29 482.828 2777.48 488.883C2759.2 501.333 2737.27 507.558 2711.68 507.558C2684.06 507.558 2659.89 501.333 2639.18 488.883C2618.87 476.044 2602.83 458.147 2591.05 435.193C2579.68 412.238 2573.99 385.393 2573.99 354.658C2573.99 323.533 2579.68 296.688 2591.05 274.123C2602.83 251.168 2618.87 233.466 2639.18 221.016C2659.89 208.177 2684.06 201.758 2711.68 201.758ZM2721.63 261.869C2706.06 261.869 2692.25 265.76 2680.19 273.541C2668.13 281.322 2658.6 292.216 2651.6 306.222C2644.98 320.228 2641.48 336.374 2641.09 354.66C2641.48 372.945 2644.98 389.091 2651.6 403.097C2658.6 417.103 2668.13 428.192 2680.19 436.362C2692.64 444.143 2706.65 448.034 2722.21 448.034C2736.99 448.034 2750.03 444.143 2761.31 436.362C2772.98 428.192 2781.93 417.103 2788.16 403.097C2794.77 389.091 2798.08 372.945 2798.08 354.66C2798.08 336.374 2794.77 320.228 2788.16 306.222C2781.93 292.216 2772.98 281.322 2761.31 273.541C2750.03 265.76 2736.8 261.869 2721.63 261.869Z" fill="#242727"/>
<path d="M2199.06 507.558C2169.88 507.558 2143.82 501.138 2120.86 488.299C2098.3 475.071 2080.6 456.98 2067.76 434.026C2054.92 411.071 2048.51 384.615 2048.51 354.658C2048.51 324.7 2054.73 298.244 2067.18 275.29C2080.02 252.335 2097.72 234.439 2120.28 221.6C2142.84 208.372 2168.71 201.758 2197.89 201.758C2227.07 201.758 2252.94 208.372 2275.5 221.6C2298.06 234.439 2315.57 252.335 2328.02 275.29C2340.86 298.244 2347.28 324.7 2347.28 354.658C2347.28 384.615 2341.05 411.071 2328.6 434.026C2316.15 456.98 2298.65 475.071 2276.08 488.299C2253.52 501.138 2227.85 507.558 2199.06 507.558ZM2199.06 447.448C2215.01 447.448 2229.21 443.557 2241.66 435.776C2254.1 427.606 2263.83 416.713 2270.83 403.095C2277.84 389.089 2281.34 372.943 2281.34 354.658C2281.34 336.372 2277.64 320.421 2270.25 306.804C2263.25 292.797 2253.52 281.904 2241.07 274.123C2228.62 265.952 2214.23 261.867 2197.89 261.867C2181.55 261.867 2167.16 265.758 2154.71 273.539C2142.26 281.32 2132.53 292.214 2125.53 306.22C2118.53 320.226 2115.03 336.372 2115.03 354.658C2115.03 372.943 2118.53 389.089 2125.53 403.095C2132.92 416.713 2142.84 427.606 2155.29 435.776C2168.13 443.557 2182.72 447.448 2199.06 447.448Z" fill="#242727"/>
<path d="M1929.7 137.083C1935.52 137.083 1940.25 141.804 1940.25 147.628V229.269C1959.89 214.89 1982.94 207.173 2004.93 205.308C2010.74 204.816 2015.47 209.582 2015.47 215.405V257.548C2015.47 262.907 2011.15 267.266 2005.8 267.589C1976.24 269.378 1954.47 276.637 1940.25 289.067V406.012C1940.25 419.625 1943.26 429.916 1949.49 436.917C1956.1 443.918 1965.63 447.419 1978.07 447.419C1981.96 447.419 1986.24 446.641 1990.91 445.085C1992.74 444.474 1994.68 443.653 1996.71 442.623C2002.21 439.832 2009.22 441.474 2011.88 447.033C2011.88 447.033 2023.92 472.243 2026.31 477.226C2028.7 482.21 2027.15 488.237 2022.41 491.081C2014.95 495.56 2007.51 499.105 2000.07 501.678C1989.96 505.567 1977.04 507.558 1966.93 507.558C1936.2 507.558 1915.48 499.928 1899.14 484.759C1883.19 469.2 1875.22 447.024 1875.22 418.241V147.628C1875.22 141.804 1879.94 137.083 1885.76 137.083H1929.7Z" fill="#242727"/>
<path d="M1699.35 507.558C1669.42 507.558 1642.98 501.138 1620.05 488.299C1597.11 475.071 1579.03 456.98 1565.82 434.026C1552.99 411.071 1546.57 384.615 1546.57 354.658C1546.57 324.7 1552.99 298.244 1565.82 275.29C1579.03 252.335 1596.92 234.439 1619.46 221.6C1642.4 208.372 1668.64 201.758 1698.19 201.758C1726.95 201.758 1753 208.761 1776.33 222.767C1796.34 234.449 1811.91 250.569 1823.05 271.126C1826.11 276.767 1823.22 283.636 1817.23 285.941L1776.03 301.802C1771.25 303.64 1765.93 301.463 1763.14 297.172C1757.14 287.925 1749.09 280.242 1739.01 274.123C1726.18 266.342 1711.6 262.451 1695.27 262.451C1679.33 262.451 1665.14 266.536 1652.7 274.706C1640.26 282.487 1630.54 293.381 1623.55 307.387C1616.55 321.004 1613.05 336.761 1613.05 354.658C1613.05 372.554 1616.55 388.506 1623.55 402.512C1630.93 416.129 1640.85 427.023 1653.29 435.193C1666.11 442.974 1680.5 446.865 1696.44 446.865C1712.76 446.865 1727.34 442.779 1740.17 434.609C1750.38 427.797 1758.5 419.137 1764.52 408.629C1767.15 404.048 1772.64 401.676 1777.57 403.573L1818.52 419.335C1824.46 421.622 1827.36 428.41 1824.42 434.06C1813.27 455.514 1797.62 472.621 1777.49 485.381C1754.56 500.165 1728.51 507.558 1699.35 507.558Z" fill="#242727"/>
<path d="M1363.21 507.558C1334.03 507.558 1307.96 501.138 1285.01 488.299C1262.45 475.071 1244.75 456.98 1231.91 434.026C1219.07 411.071 1212.65 384.615 1212.65 354.658C1212.65 324.7 1218.88 298.244 1231.33 275.29C1244.16 252.335 1261.86 234.439 1284.43 221.6C1306.99 208.372 1332.86 201.758 1362.04 201.758C1391.22 201.758 1417.09 208.372 1439.65 221.6C1462.21 234.439 1479.72 252.335 1492.17 275.29C1505 298.244 1511.42 324.7 1511.42 354.658C1511.42 384.615 1505.2 411.071 1492.75 434.026C1480.3 456.98 1462.8 475.071 1440.23 488.299C1417.67 501.138 1391.99 507.558 1363.21 507.558ZM1363.21 447.448C1379.16 447.448 1393.35 443.557 1405.8 435.776C1418.25 427.606 1427.98 416.713 1434.98 403.095C1441.98 389.089 1445.48 372.943 1445.48 354.658C1445.48 336.372 1441.79 320.421 1434.4 306.804C1427.39 292.797 1417.67 281.904 1405.22 274.123C1392.77 265.952 1378.38 261.867 1362.04 261.867C1345.7 261.867 1331.31 265.758 1318.86 273.539C1306.41 281.32 1296.68 292.214 1289.68 306.22C1282.68 320.226 1279.18 336.372 1279.18 354.658C1279.18 372.943 1282.68 389.089 1289.68 403.095C1297.07 416.713 1306.99 427.606 1319.44 435.776C1332.28 443.557 1346.87 447.448 1363.21 447.448Z" fill="#242727"/>
<path fill-rule="evenodd" clip-rule="evenodd" d="M975.612 99.8247C1014.89 99.8247 1049.58 108.404 1079.7 125.562C1110.21 142.338 1134.04 165.788 1151.2 195.909C1168.73 226.031 1177.5 260.728 1177.5 300C1177.5 338.892 1168.73 373.398 1151.2 403.52C1134.04 433.642 1110.21 457.281 1079.7 474.439C1049.58 491.597 1014.88 500.176 975.612 500.176H856.942C849.565 500.176 843.585 494.196 843.585 486.819V113.181C843.585 105.805 849.565 99.8247 856.942 99.8247H975.612ZM911.072 437.259H975.326C993.854 437.259 1011.25 433.856 1027.51 427.05C1043.76 419.865 1057.94 410.034 1070.04 397.556C1082.14 385.078 1091.6 370.52 1098.4 353.883C1105.21 337.246 1108.61 319.285 1108.61 300C1108.61 280.716 1105.21 262.755 1098.4 246.118C1091.6 229.481 1082.14 214.923 1070.04 202.445C1057.94 189.967 1043.76 180.325 1027.51 173.519C1011.25 166.334 993.854 162.742 975.326 162.742H911.072V437.259Z" fill="#242727"/>
<path d="M2550.8 205.3C2556.61 204.868 2561.34 209.635 2561.34 215.459V258.004C2561.34 263.279 2557.17 267.587 2551.92 268.014C2530.72 269.735 2515.16 274.148 2499.47 281.723C2481.55 290.377 2467.58 303.406 2458 314.451V489.632C2458 495.455 2453.28 500.177 2447.45 500.177H2403.51C2397.69 500.177 2392.97 495.455 2392.97 489.632V219.684C2392.97 213.861 2397.69 209.14 2403.51 209.14H2447.45C2453.28 209.14 2458 213.861 2458 219.684V255.807C2470.77 239.436 2482.51 230.189 2500.37 220.16C2516.3 211.208 2533.39 206.593 2550.8 205.3Z" fill="#242727"/>
<path fill-rule="evenodd" clip-rule="evenodd" d="M27.2817 177.71C30.7431 167.141 41.7094 160.97 52.5424 163.494L215.065 201.367C226.527 204.037 237.693 195.924 238.689 184.2L252.678 19.6343C253.622 8.53153 262.911 0 274.056 0H359.341C370.487 0 379.777 8.53319 380.72 19.6372L393.539 170.693C394.108 177.391 390.137 183.653 383.851 186.036C320.359 210.113 280 227.518 232.658 258.695C202.096 278.822 171.415 301.815 144.37 327.535C139.323 332.335 131.93 333.82 125.503 331.135L13.1871 284.21C2.86266 279.897 -2.4125 268.375 1.06955 257.743L27.2817 177.71ZM469.17 595.968C460.173 602.432 447.734 600.984 440.463 592.628L359.71 499.827C355.055 494.478 354.113 486.79 357.811 480.739C378.544 446.813 413.525 411.405 447.706 386.398C453.607 382.08 461.858 383.904 465.677 390.14L543.875 517.831C549.742 527.412 547.222 539.896 538.096 546.452L469.17 595.968ZM181.132 596.173C191.641 603.447 206.121 599.959 212.557 588.918C301.927 435.6 441.975 321.731 617.027 282.018C628.396 279.439 635.352 267.719 631.722 256.644L605.744 177.391C602.576 167.725 593.036 161.579 582.957 162.969C366.773 192.789 182.314 318.846 77.6436 498.962C71.6013 509.36 74.798 522.569 84.6869 529.414L181.132 596.173Z" fill="#00A085"/>
</svg>
